<svg width="315" height="13" viewBox="0 0 315 13" fill="none" xmlns="http://www.w3.org/2000/svg">
<g filter="url(#filter0_dddddddd_2177_66075)">
<path d="M83.5955 10.1434H79.8055L78.8735 12.376H76.6523L81.8092 0.515504H81.9335L87.0904 12.376H84.4808L83.5955 10.1434ZM82.8499 8.25194L81.7471 5.47674L80.5977 8.25194H82.8499Z" fill="url(#paint0_linear_2177_66075)"/>
<path d="M100.531 0.5V12.376H98.2784V6.93411L94.5506 12.2209H94.5195L90.9314 7.27519V12.376H88.7568V0.5H88.7724L94.5661 8.70155L100.5 0.5H100.531Z" fill="url(#paint1_linear_2177_66075)"/>
<path d="M110.895 0.965116V3.13566H105.35V5.56977H110.258V7.74031H105.35V10.2054H111.112V12.376H103.097V0.965116H110.895Z" fill="url(#paint2_linear_2177_66075)"/>
<path d="M119.609 12.376L117.201 8.74806H115.695V12.376H113.442V0.965116H116.906C118.325 0.965116 119.422 1.31137 120.199 2.00388C120.986 2.68605 121.38 3.62145 121.38 4.81008C121.38 5.51292 121.229 6.17442 120.929 6.79457C120.639 7.40439 120.189 7.88501 119.578 8.23643L122.234 12.376H119.609ZM115.695 6.57752H117.295C117.905 6.57752 118.351 6.40181 118.63 6.05039C118.91 5.68863 119.05 5.30103 119.05 4.8876C119.05 4.47416 118.931 4.0814 118.692 3.7093C118.454 3.32687 117.993 3.13566 117.31 3.13566H115.695V6.57752Z" fill="url(#paint3_linear_2177_66075)"/>
<path d="M126.343 0.965116V12.376H124.091V0.965116H126.343Z" fill="url(#paint4_linear_2177_66075)"/>
<path d="M137.557 11.4302C137.267 11.668 136.806 11.9057 136.175 12.1434C135.543 12.3811 134.854 12.5 134.109 12.5C132.918 12.5 131.882 12.2416 131.002 11.7248C130.122 11.208 129.449 10.5155 128.983 9.64729C128.517 8.76873 128.284 7.80749 128.284 6.76357C128.284 5.61628 128.517 4.59302 128.983 3.6938C129.449 2.79457 130.101 2.0969 130.94 1.60077C131.779 1.09432 132.747 0.841085 133.845 0.841085C134.539 0.841085 135.181 0.934109 135.771 1.12016C136.361 1.3062 136.879 1.53876 137.324 1.81783L136.439 3.94186C135.621 3.32171 134.782 3.01163 133.922 3.01163C133.343 3.01163 132.799 3.17183 132.291 3.49225C131.784 3.81266 131.38 4.25194 131.08 4.81008C130.78 5.35788 130.629 5.9677 130.629 6.63954C130.629 7.37339 130.769 8.01938 131.049 8.57752C131.328 9.12532 131.727 9.55426 132.245 9.86434C132.763 10.1744 133.368 10.3295 134.062 10.3295C134.621 10.3295 135.124 10.2416 135.569 10.0659C136.014 9.87984 136.366 9.66279 136.625 9.41473L137.557 11.4302Z" fill="url(#paint5_linear_2177_66075)"/>
<path d="M145.623 10.1434H141.833L140.901 12.376H138.68L143.836 0.515504H143.961L149.118 12.376H146.508L145.623 10.1434ZM144.877 8.25194L143.774 5.47674L142.625 8.25194H144.877Z" fill="url(#paint6_linear_2177_66075)"/>
</g>
<g filter="url(#filter1_dddddddd_2177_66075)">
<path d="M151.413 0.794196H154.83C156.29 0.794196 157.492 1.07843 158.434 1.64691C159.376 2.20505 160.06 2.93373 160.484 3.83296C160.919 4.72185 161.137 5.67792 161.137 6.70117C161.137 7.79678 160.878 8.76319 160.36 9.6004C159.842 10.4376 159.143 11.0836 158.263 11.5384C157.393 11.9828 156.435 12.2051 155.389 12.2051H151.413V0.794196ZM155.001 10.0345C156.171 10.0345 157.098 9.73477 157.782 9.13528C158.465 8.5358 158.807 7.67275 158.807 6.54614C158.807 5.63657 158.615 4.91306 158.232 4.37559C157.859 3.83812 157.419 3.46603 156.912 3.25931C156.415 3.0526 155.943 2.94924 155.498 2.94924H153.665V10.0345H155.001Z" fill="url(#paint7_linear_2177_66075)"/>
<path d="M171.194 0.794196V2.96474H165.649V5.39885H170.557V7.56939H165.649V10.0345H171.411V12.2051H163.396V0.794196H171.194Z" fill="url(#paint8_linear_2177_66075)"/>
<path d="M182.523 11.2593C182.233 11.497 181.772 11.7348 181.14 11.9725C180.509 12.2102 179.82 12.3291 179.074 12.3291C177.883 12.3291 176.848 12.0707 175.968 11.5539C175.088 11.0371 174.414 10.3446 173.949 9.47637C173.483 8.59781 173.25 7.63657 173.25 6.59265C173.25 5.44536 173.483 4.4221 173.949 3.52288C174.414 2.62365 175.067 1.92598 175.906 1.42986C176.744 0.923396 177.713 0.670166 178.81 0.670166C179.504 0.670166 180.146 0.763189 180.736 0.949236C181.327 1.13528 181.844 1.36784 182.29 1.64691L181.404 3.77094C180.586 3.15079 179.747 2.84071 178.888 2.84071C178.308 2.84071 177.764 3.00092 177.257 3.32133C176.75 3.64174 176.346 4.08102 176.045 4.63916C175.745 5.18696 175.595 5.79678 175.595 6.46862C175.595 7.20247 175.735 7.84846 176.014 8.4066C176.294 8.9544 176.693 9.38334 177.21 9.69342C177.728 10.0035 178.334 10.1585 179.028 10.1585C179.587 10.1585 180.089 10.0707 180.534 9.89497C180.98 9.70893 181.332 9.49187 181.591 9.24381L182.523 11.2593Z" fill="url(#paint9_linear_2177_66075)"/>
<path d="M187.238 0.794196V12.2051H184.986V0.794196H187.238Z" fill="url(#paint10_linear_2177_66075)"/>
<path d="M190.396 0.794196H193.813C195.273 0.794196 196.475 1.07843 197.417 1.64691C198.359 2.20505 199.043 2.93373 199.467 3.83296C199.902 4.72185 200.12 5.67792 200.12 6.70117C200.12 7.79678 199.861 8.76319 199.343 9.6004C198.825 10.4376 198.126 11.0836 197.246 11.5384C196.376 11.9828 195.418 12.2051 194.372 12.2051H190.396V0.794196ZM193.984 10.0345C195.154 10.0345 196.081 9.73477 196.764 9.13528C197.448 8.5358 197.79 7.67275 197.79 6.54614C197.79 5.63657 197.598 4.91306 197.215 4.37559C196.842 3.83812 196.402 3.46603 195.895 3.25931C195.398 3.0526 194.926 2.94924 194.481 2.94924H192.648V10.0345H193.984Z" fill="url(#paint11_linear_2177_66075)"/>
<path d="M209.97 0.794196V2.96474H204.424V5.39885H209.333V7.56939H204.424V10.0345H210.187V12.2051H202.172V0.794196H209.97Z" fill="url(#paint12_linear_2177_66075)"/>
<path d="M219.243 3.55389C218.249 3.00608 217.384 2.73218 216.649 2.73218C216.152 2.73218 215.764 2.83037 215.484 3.02676C215.215 3.22314 215.08 3.51771 215.08 3.91048C215.08 4.27223 215.277 4.59265 215.67 4.87172C216.074 5.14045 216.608 5.39885 217.27 5.64691C217.809 5.84329 218.27 6.07068 218.653 6.32908C219.036 6.57714 219.352 6.9234 219.6 7.36784C219.859 7.81229 219.988 8.37559 219.988 9.05776C219.988 9.64691 219.833 10.1947 219.523 10.7012C219.222 11.1973 218.777 11.5952 218.187 11.895C217.596 12.1844 216.892 12.3291 216.074 12.3291C215.391 12.3291 214.713 12.2309 214.039 12.0345C213.366 11.8278 212.74 11.5177 212.16 11.1043L213.154 9.35234C213.548 9.64174 213.998 9.87947 214.505 10.0655C215.013 10.2516 215.468 10.3446 215.872 10.3446C216.349 10.3446 216.763 10.2464 217.115 10.05C217.467 9.84329 217.643 9.51254 217.643 9.05776C217.643 8.46862 217.089 7.95699 215.981 7.52288C215.329 7.26448 214.785 7.01642 214.35 6.77869C213.915 6.54097 213.537 6.19988 213.216 5.75544C212.906 5.31099 212.75 4.75285 212.75 4.08102C212.75 3.09911 213.071 2.30841 213.713 1.70893C214.366 1.10944 215.23 0.783861 216.307 0.732182C217.156 0.732182 217.866 0.830373 218.435 1.02676C219.005 1.2128 219.559 1.48154 220.097 1.83296L219.243 3.55389Z" fill="url(#paint13_linear_2177_66075)"/>
</g>
<path d="M243.86 2.96866V3.8858H240.175V6.05535H243.465V6.97248H240.175V9.17162H243.998V10.0986H239.217V2.96866H243.86Z" fill="#F2F2F2"/>
<path d="M246.63 2.96866V9.17162H250.266V10.0986H245.671V2.96866H246.63Z" fill="#F2F2F2"/>
<path d="M256.461 2.96866V3.8858H252.776V6.05535H256.066V6.97248H252.776V9.17162H256.599V10.0986H251.817V2.96866H256.461Z" fill="#F2F2F2"/>
<path d="M263.518 9.56609C263.288 9.7173 262.995 9.85865 262.639 9.99014C262.29 10.1151 261.908 10.1775 261.493 10.1775C260.762 10.1775 260.116 10.0164 259.557 9.69429C259.003 9.37214 258.575 8.93823 258.272 8.39256C257.976 7.84688 257.828 7.24532 257.828 6.58788C257.828 5.88442 257.979 5.25327 258.282 4.69445C258.585 4.12905 259.003 3.68856 259.537 3.37299C260.077 3.05085 260.686 2.88977 261.365 2.88977C261.766 2.88977 262.142 2.94237 262.491 3.04756C262.84 3.15275 263.153 3.29081 263.43 3.46175L263.044 4.35915C262.498 3.99099 261.948 3.8069 261.394 3.8069C260.933 3.8069 260.505 3.92853 260.11 4.17178C259.721 4.41504 259.408 4.74704 259.171 5.16781C258.941 5.58199 258.825 6.03892 258.825 6.53857C258.825 7.05137 258.931 7.51487 259.142 7.92906C259.359 8.34325 259.665 8.66868 260.06 8.90536C260.462 9.13546 260.923 9.25052 261.444 9.25052C262.083 9.25052 262.639 9.06972 263.113 8.70813L263.518 9.56609Z" fill="#F2F2F2"/>
<path d="M269.351 2.96866V3.8858H267.434V10.0986H266.476V3.8858H264.609V2.96866H269.351Z" fill="#F2F2F2"/>
<path d="M271.841 2.96866V10.0986H270.883V2.96866H271.841Z" fill="#F2F2F2"/>
<path d="M273.448 6.53857C273.448 5.8877 273.613 5.28286 273.942 4.72403C274.272 4.16521 274.713 3.72143 275.266 3.39271C275.826 3.05742 276.435 2.88977 277.094 2.88977C277.746 2.88977 278.352 3.05742 278.912 3.39271C279.472 3.72143 279.916 4.16521 280.246 4.72403C280.582 5.28286 280.75 5.8877 280.75 6.53857C280.75 7.19601 280.585 7.80415 280.256 8.36297C279.926 8.9218 279.478 9.36557 278.912 9.69429C278.352 10.0164 277.746 10.1775 277.094 10.1775C276.435 10.1775 275.826 10.0164 275.266 9.69429C274.706 9.37214 274.262 8.93494 273.932 8.38269C273.61 7.82387 273.448 7.20916 273.448 6.53857ZM274.436 6.54843C274.436 7.03494 274.555 7.48529 274.792 7.89947C275.029 8.31366 275.352 8.64238 275.76 8.88564C276.175 9.12889 276.626 9.25052 277.114 9.25052C277.601 9.25052 278.046 9.13218 278.448 8.8955C278.856 8.65224 279.175 8.32352 279.406 7.90934C279.643 7.48857 279.762 7.03165 279.762 6.53857C279.762 6.04549 279.643 5.58857 279.406 5.16781C279.169 4.74704 278.846 4.41504 278.438 4.17178C278.029 3.92853 277.581 3.8069 277.094 3.8069C276.607 3.8069 276.159 3.93182 275.75 4.18164C275.342 4.4249 275.019 4.75691 274.782 5.17767C274.552 5.59843 274.436 6.05535 274.436 6.54843Z" fill="#F2F2F2"/>
<path d="M288.589 2.96866V10.3353H288.559L283.313 5.01988L283.333 10.0986H282.364V2.75171H282.414L287.65 8.12629L287.63 2.96866H288.589Z" fill="#F2F2F2"/>
<path d="M296.409 9.07439V10.091H291.555L291.912 9.7341C292.649 8.99869 293.223 8.40387 293.635 7.94965C294.047 7.49542 294.39 7.03759 294.664 6.57616C294.946 6.10752 295.087 5.66411 295.087 5.24593C295.087 4.80613 294.957 4.47087 294.697 4.24015C294.437 4.00943 294.119 3.89408 293.743 3.89408C293.447 3.89408 293.198 3.95536 292.996 4.07793C292.801 4.2005 292.656 4.35551 292.562 4.54297C292.476 4.73042 292.432 4.91788 292.432 5.10534C292.432 5.56677 292.573 5.94529 292.855 6.2409L292.216 6.8249C291.977 6.6807 291.782 6.43917 291.63 6.10031C291.486 5.75423 291.414 5.42979 291.414 5.12697C291.414 4.73042 291.511 4.36272 291.706 4.02385C291.909 3.67778 292.197 3.4038 292.573 3.20192C292.949 2.99284 293.397 2.88829 293.917 2.88829C294.357 2.88829 294.747 2.99284 295.087 3.20192C295.434 3.4038 295.701 3.67778 295.889 4.02385C296.076 4.36993 296.17 4.74845 296.17 5.15941C296.17 5.57038 296.073 5.98134 295.878 6.39231C295.683 6.80327 295.441 7.189 295.152 7.5495C294.87 7.90999 294.491 8.35701 294.014 8.89054L293.852 9.07439H296.409Z" fill="#F2F2F2"/>
<path d="M300.254 10.1234C299.669 10.1234 299.149 9.97924 298.694 9.69084C298.246 9.39523 297.896 8.97345 297.643 8.4255C297.39 7.87755 297.264 7.23587 297.264 6.50046C297.264 5.32524 297.527 4.43121 298.055 3.81837C298.589 3.19832 299.322 2.8919 300.254 2.89911C300.839 2.89911 301.356 3.04331 301.804 3.3317C302.259 3.6201 302.613 4.03827 302.865 4.58623C303.118 5.13418 303.245 5.77226 303.245 6.50046C303.245 7.25029 303.118 7.89918 302.865 8.44713C302.613 8.99508 302.259 9.41326 301.804 9.70165C301.356 9.99005 300.839 10.1306 300.254 10.1234ZM300.243 9.11765C300.857 9.11765 301.327 8.87972 301.652 8.40387C301.984 7.92802 302.154 7.28634 302.161 6.47883C302.154 5.69295 301.984 5.06929 301.652 4.60786C301.327 4.13921 300.857 3.90489 300.243 3.90489C299.637 3.90489 299.171 4.13921 298.846 4.60786C298.521 5.0765 298.355 5.70737 298.347 6.50046C298.355 7.30076 298.521 7.93883 298.846 8.41469C299.171 8.88333 299.637 9.11765 300.243 9.11765Z" fill="#F2F2F2"/>
<path d="M309.074 9.07439V10.091H304.22L304.578 9.7341C305.314 8.99869 305.889 8.40387 306.3 7.94965C306.712 7.49542 307.055 7.03759 307.33 6.57616C307.611 6.10752 307.752 5.66411 307.752 5.24593C307.752 4.80613 307.622 4.47087 307.362 4.24015C307.102 4.00943 306.784 3.89408 306.409 3.89408C306.113 3.89408 305.863 3.95536 305.661 4.07793C305.466 4.2005 305.322 4.35551 305.228 4.54297C305.141 4.73042 305.098 4.91788 305.098 5.10534C305.098 5.56677 305.239 5.94529 305.52 6.2409L304.881 6.8249C304.643 6.6807 304.448 6.43917 304.296 6.10031C304.151 5.75423 304.079 5.42979 304.079 5.12697C304.079 4.73042 304.177 4.36272 304.372 4.02385C304.574 3.67778 304.863 3.4038 305.239 3.20192C305.614 2.99284 306.062 2.88829 306.582 2.88829C307.023 2.88829 307.413 2.99284 307.752 3.20192C308.099 3.4038 308.366 3.67778 308.554 4.02385C308.742 4.36993 308.836 4.74845 308.836 5.15941C308.836 5.57038 308.738 5.98134 308.543 6.39231C308.348 6.80327 308.106 7.189 307.817 7.5495C307.536 7.90999 307.156 8.35701 306.68 8.89054L306.517 9.07439H309.074Z" fill="#F2F2F2"/>
<path d="M312.855 5.52712C313.223 5.52712 313.57 5.62806 313.895 5.82993C314.227 6.0246 314.494 6.29497 314.697 6.64105C314.899 6.98712 315 7.37285 315 7.79824C315 8.26688 314.885 8.68145 314.653 9.04195C314.422 9.40244 314.115 9.68363 313.732 9.88551C313.35 10.0802 312.941 10.1775 312.508 10.1775C312.024 10.1775 311.587 10.0621 311.197 9.83143C310.814 9.60072 310.511 9.27266 310.287 8.84728C310.063 8.4219 309.951 7.92441 309.951 7.35483C309.951 6.49685 310.254 5.69655 310.861 4.95393C311.475 4.21131 312.266 3.52998 313.234 2.90992L313.938 3.67778C313.295 3.99501 312.757 4.36632 312.324 4.79171C311.89 5.20988 311.573 5.64248 311.37 6.08949C311.746 5.71458 312.241 5.52712 312.855 5.52712ZM312.465 9.23662C312.876 9.23662 313.22 9.10323 313.494 8.83647C313.776 8.5697 313.917 8.22362 313.917 7.79824C313.917 7.38727 313.776 7.05562 313.494 6.80327C313.22 6.54372 312.876 6.41394 312.465 6.41394C312.205 6.41394 311.963 6.47162 311.739 6.58697C311.522 6.69512 311.349 6.84653 311.219 7.0412C311.089 7.22866 311.024 7.43414 311.024 7.65765V7.85231C311.024 8.09745 311.089 8.32817 311.219 8.54446C311.349 8.75355 311.522 8.92298 311.739 9.05276C311.963 9.17533 312.205 9.23662 312.465 9.23662Z" fill="#F2F2F2"/>
<path fill-rule="evenodd" clip-rule="evenodd" d="M54.8598 8.04604C54.8598 8.04604 55.474 8.81049 56.5487 8.81049C57.3676 8.81049 57.7259 8.45357 57.7259 7.99515C57.7259 6.77255 54.1432 7.33297 54.1432 4.83662C54.1432 3.71577 55.1156 2.7478 56.7534 2.7478C58.3403 2.7478 59.1592 3.71577 59.1592 3.71577L58.1353 4.73461C58.1353 4.73461 57.6237 4.1233 56.8045 4.1233C56.0368 4.1233 55.7298 4.42909 55.7298 4.83662C55.7298 6.05923 59.3125 5.4988 59.3125 7.99515C59.3125 9.16715 58.2889 10.1857 56.6001 10.1857C54.7573 10.1857 53.8359 9.06513 53.8359 9.06513L54.8598 8.04604Z" fill="#F2F2F2"/>
<path fill-rule="evenodd" clip-rule="evenodd" d="M44.919 2.9668L46.4031 7.75574H46.4542L47.9384 2.9668H49.3717L50.8561 7.75574H50.9075L52.3917 2.9668H53.9783L51.6239 10.0992H50.1397L48.6854 5.46393H48.6239L47.1704 10.0997H45.6862L43.3315 2.9668H44.919Z" fill="#F2F2F2"/>
<path fill-rule="evenodd" clip-rule="evenodd" d="M42.7456 2.9668V4.39343H38.9579V5.76867H41.9267V7.14417H38.9579V8.67282H42.8481V10.0992H37.4226L37.4226 2.9668H42.7456Z" fill="#F2F2F2"/>
<path fill-rule="evenodd" clip-rule="evenodd" d="M31.3639 2.9668L34.8441 7.39907V2.96705H36.3799V10.0995H34.998L31.517 5.66718V10.0995H29.9817V2.9668H31.3639Z" fill="#F2F2F2"/>
<path fill-rule="evenodd" clip-rule="evenodd" d="M23.1271 8.04604C23.1271 8.04604 23.741 8.81049 24.816 8.81049C25.6349 8.81049 25.9932 8.45357 25.9932 7.99515C25.9932 6.77255 22.4105 7.33297 22.4105 4.83662C22.4105 3.71577 23.383 2.7478 25.0207 2.7478C26.6076 2.7478 27.4265 3.71577 27.4265 3.71577L26.4027 4.73461C26.4027 4.73461 25.8907 4.1233 25.0719 4.1233C24.3041 4.1233 23.9971 4.42909 23.9971 4.83662C23.9971 6.05923 27.5799 5.4988 27.5799 7.99515C27.5799 9.16715 26.5563 10.1857 24.8674 10.1857C23.0247 10.1857 22.1033 9.06488 22.1033 9.06488L23.1271 8.04604Z" fill="#F2F2F2"/>
<path fill-rule="evenodd" clip-rule="evenodd" d="M19.2148 2.9668C20.6476 2.9668 21.5178 3.833 21.5178 4.85185C21.5178 5.97271 20.5454 6.3291 20.5454 6.3291C20.5454 6.3291 21.8759 6.68576 21.8759 8.06126C21.8759 9.18211 20.9548 10.0992 19.4193 10.0992H16.1943V2.9668L19.2148 2.9668ZM19.1121 5.7178C19.624 5.7178 19.9312 5.41227 19.9312 5.00474C19.9312 4.59721 19.6237 4.29142 19.1118 4.29142H17.7301V5.7178H19.1118H19.1121ZM19.317 8.77458C19.9312 8.77458 20.2893 8.41792 20.2893 7.90837C20.2893 7.39908 19.9312 7.04242 19.317 7.04242H17.7301V8.77458H19.317Z" fill="#F2F2F2"/>
<path fill-rule="evenodd" clip-rule="evenodd" d="M12.4246 2.7478C14.421 2.7478 15.4448 4.17444 15.4448 4.17444L14.421 5.19328C14.421 5.19328 13.7043 4.17444 12.4246 4.17444C11.1505 4.16926 10.1164 5.19861 10.1216 6.46677C10.1162 7.73503 11.1504 8.76454 12.4246 8.75936C13.7557 8.75936 14.4718 7.74052 14.4718 7.74052L15.4957 8.75936C15.4957 8.75936 14.4721 10.186 12.4246 10.186C10.2238 10.1858 8.53467 8.50446 8.53467 6.46677C8.53467 4.42909 10.2238 2.7478 12.4246 2.7478Z" fill="#F2F2F2"/>
<path fill-rule="evenodd" clip-rule="evenodd" d="M6.7685 9.26558C5.9945 10.0362 5.06171 10.4213 3.96986 10.4213C2.87803 10.4213 1.94342 10.0362 1.16605 9.26558C0.388688 8.49544 0 7.56312 0 6.46964C0 5.38287 0.388688 4.45417 1.16605 3.68404C1.94342 2.9139 2.87803 2.52832 3.96986 2.52832C5.06171 2.52832 5.9945 2.9139 6.7685 3.68404C7.54249 4.45417 7.92936 5.38287 7.92936 6.46964C7.92936 7.56312 7.54249 8.49544 6.7685 9.26558ZM6.24853 4.80978C5.56301 4.348 4.80173 4.11661 3.96468 4.11661C3.12737 4.11661 2.36246 4.34775 1.67072 4.80951C1.02724 5.23694 0.549811 5.79194 0.238449 6.47427C0.549811 7.15685 1.02724 7.71496 1.67072 8.14936C2.36246 8.60441 3.12737 8.83194 3.96468 8.83194C4.80198 8.83194 5.56301 8.60467 6.24826 8.14936C6.89875 7.71496 7.37954 7.15711 7.69117 6.47453C7.37981 5.7922 6.89875 5.23746 6.24853 4.80978ZM5.4574 7.94999C5.04615 8.35908 4.5503 8.56389 3.96986 8.56389C3.38944 8.56389 2.89359 8.35908 2.48259 7.94999C2.07134 7.54091 1.86558 7.04711 1.86558 6.46939C1.86558 5.8914 2.07134 5.40018 2.48259 4.99393C2.89359 4.58847 3.38944 4.38521 3.96986 4.38521C4.5503 4.38521 5.04615 4.5882 5.4574 4.99393C5.8684 5.39992 6.07416 5.8914 6.07416 6.46939C6.07416 7.04711 5.8684 7.54091 5.4574 7.94999Z" fill="#F2F2F2"/>
<path d="M68.5217 2.79639L69.3984 5.48964H72.2355L69.9402 7.15417L70.817 9.84742L68.5217 8.1829L66.2264 9.84742L67.1031 7.15417L64.8078 5.48964H67.645L68.5217 2.79639Z" fill="url(#paint14_linear_2177_66075)"/>
<path d="M228.748 2.79639L229.624 5.48964H232.462L230.166 7.15417L231.043 9.84742L228.748 8.1829L226.452 9.84742L227.329 7.15417L225.034 5.48964H227.871L228.748 2.79639Z" fill="url(#paint15_linear_2177_66075)"/>
<defs>
<filter id="filter0_dddddddd_2177_66075" x="76.1523" y="0" width="73.4653" height="13" filterUnits="userSpaceOnUse" color-interpolation-filters="sRGB">
<feFlood flood-opacity="0" result="BackgroundImageFix"/>
<feColorMatrix in="SourceAlpha" type="matrix" values="0 0 0 0 0 0 0 0 0 0 0 0 0 0 0 0 0 0 127 0" result="hardAlpha"/>
<feOffset dx="-0.5"/>
<feColorMatrix type="matrix" values="0 0 0 0 0 0 0 0 0 0 0 0 0 0 0 0 0 0 0.1 0"/>
<feBlend mode="normal" in2="BackgroundImageFix" result="effect1_dropShadow_2177_66075"/>
<feColorMatrix in="SourceAlpha" type="matrix" values="0 0 0 0 0 0 0 0 0 0 0 0 0 0 0 0 0 0 127 0" result="hardAlpha"/>
<feOffset dx="-0.5" dy="0.5"/>
<feColorMatrix type="matrix" values="0 0 0 0 0 0 0 0 0 0 0 0 0 0 0 0 0 0 0.1 0"/>
<feBlend mode="normal" in2="effect1_dropShadow_2177_66075" result="effect2_dropShadow_2177_66075"/>
<feColorMatrix in="SourceAlpha" type="matrix" values="0 0 0 0 0 0 0 0 0 0 0 0 0 0 0 0 0 0 127 0" result="hardAlpha"/>
<feOffset dy="0.5"/>
<feColorMatrix type="matrix" values="0 0 0 0 0 0 0 0 0 0 0 0 0 0 0 0 0 0 0.1 0"/>
<feBlend mode="normal" in2="effect2_dropShadow_2177_66075" result="effect3_dropShadow_2177_66075"/>
<feColorMatrix in="SourceAlpha" type="matrix" values="0 0 0 0 0 0 0 0 0 0 0 0 0 0 0 0 0 0 127 0" result="hardAlpha"/>
<feOffset dx="0.5" dy="0.5"/>
<feColorMatrix type="matrix" values="0 0 0 0 0 0 0 0 0 0 0 0 0 0 0 0 0 0 0.1 0"/>
<feBlend mode="normal" in2="effect3_dropShadow_2177_66075" result="effect4_dropShadow_2177_66075"/>
<feColorMatrix in="SourceAlpha" type="matrix" values="0 0 0 0 0 0 0 0 0 0 0 0 0 0 0 0 0 0 127 0" result="hardAlpha"/>
<feOffset dx="0.5"/>
<feColorMatrix type="matrix" values="0 0 0 0 0 0 0 0 0 0 0 0 0 0 0 0 0 0 0.1 0"/>
<feBlend mode="normal" in2="effect4_dropShadow_2177_66075" result="effect5_dropShadow_2177_66075"/>
<feColorMatrix in="SourceAlpha" type="matrix" values="0 0 0 0 0 0 0 0 0 0 0 0 0 0 0 0 0 0 127 0" result="hardAlpha"/>
<feOffset dy="-0.5"/>
<feColorMatrix type="matrix" values="0 0 0 0 0 0 0 0 0 0 0 0 0 0 0 0 0 0 0.1 0"/>
<feBlend mode="normal" in2="effect5_dropShadow_2177_66075" result="effect6_dropShadow_2177_66075"/>
<feColorMatrix in="SourceAlpha" type="matrix" values="0 0 0 0 0 0 0 0 0 0 0 0 0 0 0 0 0 0 127 0" result="hardAlpha"/>
<feOffset dx="-0.5" dy="-0.5"/>
<feColorMatrix type="matrix" values="0 0 0 0 0 0 0 0 0 0 0 0 0 0 0 0 0 0 0.1 0"/>
<feBlend mode="normal" in2="effect6_dropShadow_2177_66075" result="effect7_dropShadow_2177_66075"/>
<feColorMatrix in="SourceAlpha" type="matrix" values="0 0 0 0 0 0 0 0 0 0 0 0 0 0 0 0 0 0 127 0" result="hardAlpha"/>
<feOffset dx="0.5"/>
<feColorMatrix type="matrix" values="0 0 0 0 0 0 0 0 0 0 0 0 0 0 0 0 0 0 0.1 0"/>
<feBlend mode="normal" in2="effect7_dropShadow_2177_66075" result="effect8_dropShadow_2177_66075"/>
<feBlend mode="normal" in="SourceGraphic" in2="effect8_dropShadow_2177_66075" result="shape"/>
</filter>
<filter id="filter1_dddddddd_2177_66075" x="150.913" y="0.170166" width="69.6841" height="12.6589" filterUnits="userSpaceOnUse" color-interpolation-filters="sRGB">
<feFlood flood-opacity="0" result="BackgroundImageFix"/>
<feColorMatrix in="SourceAlpha" type="matrix" values="0 0 0 0 0 0 0 0 0 0 0 0 0 0 0 0 0 0 127 0" result="hardAlpha"/>
<feOffset dx="-0.5"/>
<feColorMatrix type="matrix" values="0 0 0 0 0 0 0 0 0 0 0 0 0 0 0 0 0 0 0.1 0"/>
<feBlend mode="normal" in2="BackgroundImageFix" result="effect1_dropShadow_2177_66075"/>
<feColorMatrix in="SourceAlpha" type="matrix" values="0 0 0 0 0 0 0 0 0 0 0 0 0 0 0 0 0 0 127 0" result="hardAlpha"/>
<feOffset dx="-0.5" dy="0.5"/>
<feColorMatrix type="matrix" values="0 0 0 0 0 0 0 0 0 0 0 0 0 0 0 0 0 0 0.1 0"/>
<feBlend mode="normal" in2="effect1_dropShadow_2177_66075" result="effect2_dropShadow_2177_66075"/>
<feColorMatrix in="SourceAlpha" type="matrix" values="0 0 0 0 0 0 0 0 0 0 0 0 0 0 0 0 0 0 127 0" result="hardAlpha"/>
<feOffset dy="0.5"/>
<feColorMatrix type="matrix" values="0 0 0 0 0 0 0 0 0 0 0 0 0 0 0 0 0 0 0.1 0"/>
<feBlend mode="normal" in2="effect2_dropShadow_2177_66075" result="effect3_dropShadow_2177_66075"/>
<feColorMatrix in="SourceAlpha" type="matrix" values="0 0 0 0 0 0 0 0 0 0 0 0 0 0 0 0 0 0 127 0" result="hardAlpha"/>
<feOffset dx="0.5" dy="0.5"/>
<feColorMatrix type="matrix" values="0 0 0 0 0 0 0 0 0 0 0 0 0 0 0 0 0 0 0.1 0"/>
<feBlend mode="normal" in2="effect3_dropShadow_2177_66075" result="effect4_dropShadow_2177_66075"/>
<feColorMatrix in="SourceAlpha" type="matrix" values="0 0 0 0 0 0 0 0 0 0 0 0 0 0 0 0 0 0 127 0" result="hardAlpha"/>
<feOffset dx="0.5"/>
<feColorMatrix type="matrix" values="0 0 0 0 0 0 0 0 0 0 0 0 0 0 0 0 0 0 0.1 0"/>
<feBlend mode="normal" in2="effect4_dropShadow_2177_66075" result="effect5_dropShadow_2177_66075"/>
<feColorMatrix in="SourceAlpha" type="matrix" values="0 0 0 0 0 0 0 0 0 0 0 0 0 0 0 0 0 0 127 0" result="hardAlpha"/>
<feOffset dy="-0.5"/>
<feColorMatrix type="matrix" values="0 0 0 0 0 0 0 0 0 0 0 0 0 0 0 0 0 0 0.1 0"/>
<feBlend mode="normal" in2="effect5_dropShadow_2177_66075" result="effect6_dropShadow_2177_66075"/>
<feColorMatrix in="SourceAlpha" type="matrix" values="0 0 0 0 0 0 0 0 0 0 0 0 0 0 0 0 0 0 127 0" result="hardAlpha"/>
<feOffset dx="-0.5" dy="-0.5"/>
<feColorMatrix type="matrix" values="0 0 0 0 0 0 0 0 0 0 0 0 0 0 0 0 0 0 0.1 0"/>
<feBlend mode="normal" in2="effect6_dropShadow_2177_66075" result="effect7_dropShadow_2177_66075"/>
<feColorMatrix in="SourceAlpha" type="matrix" values="0 0 0 0 0 0 0 0 0 0 0 0 0 0 0 0 0 0 127 0" result="hardAlpha"/>
<feOffset dx="0.5"/>
<feColorMatrix type="matrix" values="0 0 0 0 0 0 0 0 0 0 0 0 0 0 0 0 0 0 0.1 0"/>
<feBlend mode="normal" in2="effect7_dropShadow_2177_66075" result="effect8_dropShadow_2177_66075"/>
<feBlend mode="normal" in="SourceGraphic" in2="effect8_dropShadow_2177_66075" result="shape"/>
</filter>
<linearGradient id="paint0_linear_2177_66075" x1="112.885" y1="0.500008" x2="112.885" y2="12.5" gradientUnits="userSpaceOnUse">
<stop stop-color="white"/>
<stop offset="1" stop-color="#B1B1B1"/>
</linearGradient>
<linearGradient id="paint1_linear_2177_66075" x1="112.885" y1="0.500008" x2="112.885" y2="12.5" gradientUnits="userSpaceOnUse">
<stop stop-color="white"/>
<stop offset="1" stop-color="#B1B1B1"/>
</linearGradient>
<linearGradient id="paint2_linear_2177_66075" x1="112.885" y1="0.500008" x2="112.885" y2="12.5" gradientUnits="userSpaceOnUse">
<stop stop-color="white"/>
<stop offset="1" stop-color="#B1B1B1"/>
</linearGradient>
<linearGradient id="paint3_linear_2177_66075" x1="112.885" y1="0.500008" x2="112.885" y2="12.5" gradientUnits="userSpaceOnUse">
<stop stop-color="white"/>
<stop offset="1" stop-color="#B1B1B1"/>
</linearGradient>
<linearGradient id="paint4_linear_2177_66075" x1="112.885" y1="0.500008" x2="112.885" y2="12.5" gradientUnits="userSpaceOnUse">
<stop stop-color="white"/>
<stop offset="1" stop-color="#B1B1B1"/>
</linearGradient>
<linearGradient id="paint5_linear_2177_66075" x1="112.885" y1="0.500008" x2="112.885" y2="12.5" gradientUnits="userSpaceOnUse">
<stop stop-color="white"/>
<stop offset="1" stop-color="#B1B1B1"/>
</linearGradient>
<linearGradient id="paint6_linear_2177_66075" x1="112.885" y1="0.500008" x2="112.885" y2="12.5" gradientUnits="userSpaceOnUse">
<stop stop-color="white"/>
<stop offset="1" stop-color="#B1B1B1"/>
</linearGradient>
<linearGradient id="paint7_linear_2177_66075" x1="185.755" y1="0.670174" x2="185.755" y2="12.3291" gradientUnits="userSpaceOnUse">
<stop stop-color="white"/>
<stop offset="1" stop-color="#B1B1B1"/>
</linearGradient>
<linearGradient id="paint8_linear_2177_66075" x1="185.755" y1="0.670174" x2="185.755" y2="12.3291" gradientUnits="userSpaceOnUse">
<stop stop-color="white"/>
<stop offset="1" stop-color="#B1B1B1"/>
</linearGradient>
<linearGradient id="paint9_linear_2177_66075" x1="185.755" y1="0.670174" x2="185.755" y2="12.3291" gradientUnits="userSpaceOnUse">
<stop stop-color="white"/>
<stop offset="1" stop-color="#B1B1B1"/>
</linearGradient>
<linearGradient id="paint10_linear_2177_66075" x1="185.755" y1="0.670174" x2="185.755" y2="12.3291" gradientUnits="userSpaceOnUse">
<stop stop-color="white"/>
<stop offset="1" stop-color="#B1B1B1"/>
</linearGradient>
<linearGradient id="paint11_linear_2177_66075" x1="185.755" y1="0.670174" x2="185.755" y2="12.3291" gradientUnits="userSpaceOnUse">
<stop stop-color="white"/>
<stop offset="1" stop-color="#B1B1B1"/>
</linearGradient>
<linearGradient id="paint12_linear_2177_66075" x1="185.755" y1="0.670174" x2="185.755" y2="12.3291" gradientUnits="userSpaceOnUse">
<stop stop-color="white"/>
<stop offset="1" stop-color="#B1B1B1"/>
</linearGradient>
<linearGradient id="paint13_linear_2177_66075" x1="185.755" y1="0.670174" x2="185.755" y2="12.3291" gradientUnits="userSpaceOnUse">
<stop stop-color="white"/>
<stop offset="1" stop-color="#B1B1B1"/>
</linearGradient>
<linearGradient id="paint14_linear_2177_66075" x1="68.5217" y1="2.79639" x2="68.5217" y2="10.5918" gradientUnits="userSpaceOnUse">
<stop stop-color="white"/>
<stop offset="1" stop-color="#B1B1B1"/>
</linearGradient>
<linearGradient id="paint15_linear_2177_66075" x1="228.748" y1="2.79639" x2="228.748" y2="10.5918" gradientUnits="userSpaceOnUse">
<stop stop-color="white"/>
<stop offset="1" stop-color="#B1B1B1"/>
</linearGradient>
</defs>
</svg>
