<svg preserveAspectRatio="none" width="100%" height="100%" overflow="visible" style="display: block;" viewBox="0 0 67 40" fill="none" xmlns="http://www.w3.org/2000/svg">
<g id="Logo">
<g id="AMERICA">
<path d="M12.0769 14.8869H9.30429L8.6225 16.5209H6.99756L10.7701 7.84028H10.861L14.6336 16.5209H12.7246L12.0769 14.8869ZM11.5315 13.5025L10.7247 11.4714L9.88381 13.5025H11.5315Z" fill="url(#paint0_linear_0_1014)"/>
<path d="M24.466 7.82894V16.5209H22.8184V12.538L20.0912 16.4074H20.0685L17.4436 12.7877V16.5209H15.8528V7.82894H15.8641L20.1026 13.8316L24.4433 7.82894H24.466Z" fill="url(#paint1_linear_0_1014)"/>
<path d="M32.048 8.16935V9.75796H27.9914V11.5395H31.5821V13.1281H27.9914V14.9323H32.2071V16.5209H26.3437V8.16935H32.048Z" fill="url(#paint2_linear_0_1014)"/>
<path d="M38.4229 16.5209L36.6616 13.8656H35.5594V16.5209H33.9118V8.16935H36.4457C37.4836 8.16935 38.2866 8.42277 38.8547 8.92961C39.4305 9.42889 39.7183 10.1135 39.7183 10.9835C39.7183 11.4979 39.6085 11.982 39.3888 12.4359C39.1767 12.8822 38.8472 13.234 38.4002 13.4912L40.3433 16.5209H38.4229ZM35.5594 12.277H36.7298C37.1768 12.277 37.5025 12.1484 37.7071 11.8912C37.9116 11.6265 38.0139 11.3428 38.0139 11.0402C38.0139 10.7376 37.9267 10.4501 37.7525 10.1778C37.5783 9.89791 37.2412 9.75796 36.7412 9.75796H35.5594V12.277Z" fill="url(#paint3_linear_0_1014)"/>
<path d="M43.3494 8.16935V16.5209H41.7017V8.16935H43.3494Z" fill="url(#paint4_linear_0_1014)"/>
<path d="M51.5532 15.8287C51.341 16.0027 51.0039 16.1767 50.5418 16.3507C50.0797 16.5247 49.576 16.6117 49.0305 16.6117C48.1594 16.6117 47.4018 16.4225 46.7579 16.0443C46.114 15.6661 45.6216 15.1592 45.2807 14.5238C44.9398 13.8808 44.7693 13.1772 44.7693 12.4132C44.7693 11.5735 44.9398 10.8246 45.2807 10.1665C45.6216 9.50832 46.0988 8.9977 46.7124 8.63459C47.3261 8.26391 48.0344 8.07858 48.8374 8.07858C49.3449 8.07858 49.8146 8.14666 50.2464 8.28282C50.6782 8.41899 51.057 8.5892 51.3827 8.79345L50.735 10.348C50.1366 9.89412 49.5229 9.66718 48.8942 9.66718C48.47 9.66718 48.0722 9.78443 47.701 10.0189C47.3299 10.2535 47.0344 10.575 46.8147 10.9835C46.595 11.3844 46.4852 11.8307 46.4852 12.3224C46.4852 12.8595 46.5875 13.3323 46.792 13.7408C46.9965 14.1417 47.2882 14.4557 47.667 14.6826C48.0457 14.9096 48.4889 15.023 48.9964 15.023C49.4055 15.023 49.7729 14.9587 50.0987 14.8301C50.4244 14.694 50.682 14.5351 50.8714 14.3536L51.5532 15.8287Z" fill="url(#paint5_linear_0_1014)"/>
<path d="M57.4537 14.8869H54.681L53.9993 16.5209H52.3743L56.1469 7.84028H56.2378L60.0104 16.5209H58.1014L57.4537 14.8869ZM56.9082 13.5025L56.1014 11.4714L55.2606 13.5025H56.9082Z" fill="url(#paint6_linear_0_1014)"/>
</g>
<g id="ELECTION 2026">
<path d="M11.8267 28.1713V28.7745H9.40399V30.2015H11.5669V30.8047H9.40399V32.251H11.9176V32.8607H8.77396V28.1713H11.8267Z" fill="var(--fill-0, #101010)"/>
<path d="M13.6474 28.1713V32.251H16.0376V32.8607H13.0174V28.1713H13.6474Z" fill="var(--fill-0, #101010)"/>
<path d="M20.1105 28.1713V28.7745H17.6878V30.2015H19.8507V30.8047H17.6878V32.251H20.2014V32.8607H17.0578V28.1713H20.1105Z" fill="var(--fill-0, #101010)"/>
<path d="M24.7501 32.5105C24.5986 32.6099 24.4059 32.7029 24.1721 32.7894C23.9426 32.8715 23.6914 32.9126 23.4186 32.9126C22.938 32.9126 22.5136 32.8067 22.1456 32.5948C21.7818 32.3829 21.5004 32.0975 21.3012 31.7386C21.1063 31.3798 21.0089 30.9841 21.0089 30.5517C21.0089 30.089 21.1085 29.6739 21.3077 29.3064C21.5069 28.9345 21.7818 28.6448 22.1326 28.4373C22.4876 28.2254 22.8882 28.1195 23.3342 28.1195C23.5983 28.1195 23.8451 28.1541 24.0746 28.2232C24.3041 28.2924 24.5098 28.3832 24.6917 28.4956L24.4384 29.0859C24.079 28.8437 23.7174 28.7227 23.3537 28.7227C23.0506 28.7227 22.7691 28.8026 22.5093 28.9626C22.2538 29.1226 22.0481 29.341 21.8923 29.6177C21.7407 29.8901 21.6649 30.1907 21.6649 30.5193C21.6649 30.8565 21.7342 31.1614 21.8728 31.4338C22.0157 31.7062 22.217 31.9203 22.4768 32.0759C22.741 32.2273 23.0441 32.3029 23.3861 32.3029C23.8062 32.3029 24.1721 32.184 24.4838 31.9462L24.7501 32.5105Z" fill="var(--fill-0, #101010)"/>
<path d="M28.5844 28.1713V28.7745H27.3244V32.8607H26.6943V28.7745H25.4668V28.1713H28.5844Z" fill="var(--fill-0, #101010)"/>
<path d="M30.2214 28.1713V32.8607H29.5914V28.1713H30.2214Z" fill="var(--fill-0, #101010)"/>
<path d="M31.2781 30.5193C31.2781 30.0912 31.3863 29.6934 31.6028 29.3259C31.8193 28.9583 32.1095 28.6664 32.4732 28.4502C32.8412 28.2297 33.2418 28.1195 33.6748 28.1195C34.1035 28.1195 34.5018 28.2297 34.8699 28.4502C35.238 28.6664 35.5302 28.9583 35.7467 29.3259C35.9676 29.6934 36.078 30.0912 36.078 30.5193C36.078 30.9517 35.9697 31.3516 35.7532 31.7192C35.5367 32.0867 35.2423 32.3786 34.8699 32.5948C34.5018 32.8067 34.1035 32.9126 33.6748 32.9126C33.2418 32.9126 32.8412 32.8067 32.4732 32.5948C32.1051 32.3829 31.8128 32.0954 31.5963 31.7322C31.3842 31.3646 31.2781 30.9603 31.2781 30.5193ZM31.9276 30.5258C31.9276 30.8457 32.0055 31.1419 32.1614 31.4143C32.3173 31.6868 32.5295 31.903 32.7979 32.0629C33.0707 32.2229 33.3674 32.3029 33.6878 32.3029C34.0082 32.3029 34.3005 32.2251 34.5646 32.0694C34.8331 31.9094 35.0431 31.6932 35.1947 31.4208C35.3505 31.1441 35.4285 30.8436 35.4285 30.5193C35.4285 30.195 35.3505 29.8945 35.1947 29.6177C35.0388 29.341 34.8266 29.1226 34.5581 28.9626C34.2897 28.8026 33.9952 28.7227 33.6748 28.7227C33.3544 28.7227 33.0599 28.8048 32.7914 28.9691C32.523 29.1291 32.3108 29.3475 32.1549 29.6242C32.0034 29.9009 31.9276 30.2015 31.9276 30.5258Z" fill="var(--fill-0, #101010)"/>
<path d="M41.2314 28.1713V33.0164H41.2119L37.763 29.5204L37.776 32.8607H37.1394V28.0287H37.1719L40.6143 31.5635L40.6013 28.1713H41.2314Z" fill="var(--fill-0, #101010)"/>
<path d="M46.3723 32.1871V32.8557H43.1812L43.4162 32.621C43.9006 32.1373 44.2781 31.7461 44.5488 31.4473C44.8195 31.1486 45.045 30.8475 45.2255 30.544C45.4107 30.2358 45.5033 29.9441 45.5033 29.6691C45.5033 29.3798 45.4178 29.1593 45.2468 29.0076C45.0759 28.8559 44.867 28.78 44.62 28.78C44.4253 28.78 44.2615 28.8203 44.1285 28.9009C44.0003 28.9815 43.9054 29.0835 43.8436 29.2068C43.7866 29.3301 43.7581 29.4533 43.7581 29.5766C43.7581 29.8801 43.8507 30.1291 44.0359 30.3235L43.6157 30.7076C43.459 30.6128 43.3308 30.4539 43.231 30.231C43.1361 30.0034 43.0886 29.79 43.0886 29.5909C43.0886 29.3301 43.1527 29.0882 43.2809 28.8653C43.4139 28.6377 43.6038 28.4575 43.8507 28.3248C44.0977 28.1872 44.3921 28.1185 44.734 28.1185C45.0237 28.1185 45.2801 28.1872 45.5033 28.3248C45.7312 28.4575 45.9069 28.6377 46.0304 28.8653C46.1538 29.093 46.2156 29.3419 46.2156 29.6122C46.2156 29.8825 46.1515 30.1528 46.0233 30.4231C45.895 30.6934 45.736 30.9471 45.546 31.1842C45.3608 31.4213 45.1115 31.7153 44.7981 32.0662L44.6913 32.1871H46.3723Z" fill="var(--fill-0, #101010)"/>
<path d="M48.9004 32.877C48.5157 32.877 48.1738 32.7822 47.8747 32.5925C47.5803 32.3981 47.3499 32.1207 47.1837 31.7603C47.0175 31.3999 46.9344 30.9779 46.9344 30.4942C46.9344 29.7213 47.1078 29.1333 47.4544 28.7302C47.8058 28.3224 48.2878 28.1209 48.9004 28.1256C49.285 28.1256 49.6245 28.2204 49.919 28.4101C50.2181 28.5998 50.4508 28.8748 50.617 29.2352C50.7832 29.5956 50.8663 30.0153 50.8663 30.4942C50.8663 30.9874 50.7832 31.4141 50.617 31.7745C50.4508 32.1349 50.2181 32.41 49.919 32.5996C49.6245 32.7893 49.285 32.8818 48.9004 32.877ZM48.8933 32.2155C49.2969 32.2155 49.6055 32.0591 49.8192 31.7461C50.0377 31.4331 50.1493 31.0111 50.154 30.48C50.1493 29.9631 50.0377 29.5529 49.8192 29.2494C49.6055 28.9412 49.2969 28.7871 48.8933 28.7871C48.4944 28.7871 48.1881 28.9412 47.9744 29.2494C47.7607 29.5577 47.6515 29.9726 47.6467 30.4942C47.6515 31.0206 47.7607 31.4402 47.9744 31.7532C48.1881 32.0614 48.4944 32.2155 48.8933 32.2155Z" fill="var(--fill-0, #101010)"/>
<path d="M54.6986 32.1871V32.8557H51.5075L51.7426 32.621C52.227 32.1373 52.6045 31.7461 52.8752 31.4473C53.1458 31.1486 53.3714 30.8475 53.5518 30.544C53.737 30.2358 53.8296 29.9441 53.8296 29.6691C53.8296 29.3798 53.7442 29.1593 53.5732 29.0076C53.4023 28.8559 53.1933 28.78 52.9464 28.78C52.7517 28.78 52.5879 28.8203 52.4549 28.9009C52.3267 28.9815 52.2317 29.0835 52.17 29.2068C52.113 29.3301 52.0845 29.4533 52.0845 29.5766C52.0845 29.8801 52.1771 30.1291 52.3623 30.3235L51.942 30.7076C51.7853 30.6128 51.6571 30.4539 51.5574 30.231C51.4624 30.0034 51.4149 29.79 51.4149 29.5909C51.4149 29.3301 51.4791 29.0882 51.6073 28.8653C51.7402 28.6377 51.9302 28.4575 52.1771 28.3248C52.424 28.1872 52.7185 28.1185 53.0604 28.1185C53.35 28.1185 53.6064 28.1872 53.8296 28.3248C54.0576 28.4575 54.2333 28.6377 54.3567 28.8653C54.4802 29.093 54.5419 29.3419 54.5419 29.6122C54.5419 29.8825 54.4778 30.1528 54.3496 30.4231C54.2214 30.6934 54.0623 30.9471 53.8724 31.1842C53.6872 31.4213 53.4379 31.7153 53.1245 32.0662L53.0176 32.1871H54.6986Z" fill="var(--fill-0, #101010)"/>
<path d="M57.184 29.854C57.4262 29.854 57.6541 29.9204 57.8678 30.0532C58.0862 30.1812 58.2619 30.3591 58.3949 30.5867C58.5279 30.8143 58.5943 31.068 58.5943 31.3478C58.5943 31.656 58.5184 31.9287 58.3664 32.1658C58.2145 32.4028 58.0126 32.5878 57.761 32.7206C57.5093 32.8486 57.241 32.9126 56.9561 32.9126C56.6379 32.9126 56.3506 32.8367 56.0942 32.685C55.8425 32.5333 55.6431 32.3175 55.4959 32.0377C55.3486 31.7579 55.275 31.4307 55.275 31.0561C55.275 30.4918 55.4745 29.9655 55.8734 29.4771C56.277 28.9886 56.797 28.5405 57.4333 28.1327L57.8963 28.6377C57.4737 28.8464 57.1199 29.0906 56.835 29.3704C56.55 29.6454 56.3411 29.9299 56.2081 30.2239C56.4551 29.9773 56.7804 29.854 57.184 29.854ZM56.9276 32.2938C57.1982 32.2938 57.4238 32.2061 57.6043 32.0306C57.7895 31.8552 57.882 31.6275 57.882 31.3478C57.882 31.0775 57.7895 30.8593 57.6043 30.6934C57.4238 30.5227 57.1982 30.4373 56.9276 30.4373C56.7566 30.4373 56.5975 30.4752 56.4503 30.5511C56.3079 30.6222 56.1939 30.7218 56.1084 30.8499C56.0229 30.9731 55.9802 31.1083 55.9802 31.2553V31.3833C55.9802 31.5446 56.0229 31.6963 56.1084 31.8386C56.1939 31.9761 56.3079 32.0875 56.4503 32.1729C56.5975 32.2535 56.7566 32.2938 56.9276 32.2938Z" fill="var(--fill-0, #101010)"/>
</g>
<path id="I" d="M29.2419 38.0572L8.77396 38.0572L8.77396 36.4061L29.2419 36.4061V38.0572Z" fill="url(#paint7_linear_0_1014)"/>
<path id="I_2" d="M58.5257 38.0572L38.0578 38.0572L38.0578 36.4061L58.5257 36.4061V38.0572Z" fill="url(#paint8_linear_0_1014)"/>
<g id="Group 389">
<path id="path7" fill-rule="evenodd" clip-rule="evenodd" d="M51.0654 3.846C51.0654 3.846 51.4934 4.3789 52.2422 4.3789C52.8128 4.3789 53.0625 4.13009 53.0625 3.81053C53.0625 2.95825 50.5661 3.34892 50.5661 1.60871C50.5661 0.827367 51.2437 0.152598 52.3849 0.152598C53.4906 0.152598 54.0612 0.827367 54.0612 0.827367L53.3478 1.5376C53.3478 1.5376 52.9913 1.11146 52.4205 1.11146C51.8855 1.11146 51.6716 1.32462 51.6716 1.60871C51.6716 2.461 54.168 2.07032 54.168 3.81053C54.168 4.62752 53.4548 5.33758 52.278 5.33758C50.994 5.33758 50.352 4.55641 50.352 4.55641L51.0654 3.846Z" fill="var(--fill-0, #101010)"/>
<path id="path6" fill-rule="evenodd" clip-rule="evenodd" d="M44.1387 0.305631L45.1729 3.644H45.2085L46.2426 0.305626H47.2413L48.2757 3.644H48.3115L49.3456 0.305626H50.4512L48.8106 5.27763H47.7765L46.7631 2.04638H46.7203L45.7075 5.27799H44.6734L43.0326 0.305631H44.1387Z" fill="var(--fill-0, #101010)"/>
<path id="path5" fill-rule="evenodd" clip-rule="evenodd" d="M42.6244 0.305626V1.30013H39.9852V2.25882H42.0538V3.21768H39.9852V4.2833H42.6958V5.27763H38.9154L38.9154 0.305626H42.6244Z" fill="var(--fill-0, #101010)"/>
<path id="path4" fill-rule="evenodd" clip-rule="evenodd" d="M34.6937 0.305626L37.1187 3.39537V0.305805H38.1888V5.2778H37.2259L34.8004 2.18806V5.2778H33.7307V0.305626H34.6937Z" fill="var(--fill-0, #101010)"/>
<path id="path3" fill-rule="evenodd" clip-rule="evenodd" d="M28.9545 3.846C28.9545 3.846 29.3822 4.3789 30.1313 4.3789C30.7019 4.3789 30.9515 4.13009 30.9515 3.81053C30.9515 2.95825 28.4551 3.34892 28.4551 1.60871C28.4551 0.827367 29.1327 0.152598 30.2739 0.152598C31.3796 0.152598 31.9502 0.827367 31.9502 0.827367L31.2368 1.5376C31.2368 1.5376 30.8801 1.11146 30.3095 1.11146C29.7746 1.11146 29.5607 1.32462 29.5607 1.60871C29.5607 2.461 32.0571 2.07032 32.0571 3.81053C32.0571 4.62752 31.3438 5.33758 30.1671 5.33758C28.8831 5.33758 28.2411 4.55623 28.2411 4.55623L28.9545 3.846Z" fill="var(--fill-0, #101010)"/>
<path id="path2" fill-rule="evenodd" clip-rule="evenodd" d="M26.2284 0.305632C27.2268 0.305632 27.8332 0.909459 27.8332 1.6197C27.8332 2.40105 27.1555 2.64949 27.1555 2.64949C27.1555 2.64949 28.0826 2.89812 28.0826 3.85698C28.0826 4.63833 27.4408 5.27763 26.3709 5.27763H24.1238V0.305626L26.2284 0.305632ZM26.1568 2.22335C26.5135 2.22335 26.7276 2.01037 26.7276 1.72628C26.7276 1.44219 26.5134 1.22902 26.1567 1.22902H25.1939V2.22335H26.1567H26.1568ZM26.2997 4.35423C26.7276 4.35423 26.9771 4.10561 26.9771 3.7504C26.9771 3.39537 26.7276 3.14674 26.2997 3.14674H25.1939V4.35423H26.2997Z" fill="var(--fill-0, #101010)"/>
<path id="use2" fill-rule="evenodd" clip-rule="evenodd" d="M21.4972 0.152598C22.8883 0.152598 23.6017 1.14711 23.6017 1.14711L22.8883 1.85734C22.8883 1.85734 22.3889 1.14711 21.4972 1.14711C20.6095 1.1435 19.8889 1.86106 19.8925 2.74509C19.8888 3.62919 20.6094 4.34687 21.4972 4.34326C22.4247 4.34326 22.9237 3.63302 22.9237 3.63302L23.6371 4.34326C23.6371 4.34326 22.9239 5.33776 21.4972 5.33776C19.9637 5.33761 18.7868 4.16556 18.7868 2.74509C18.7868 1.32462 19.9637 0.152598 21.4972 0.152598Z" fill="var(--fill-0, #101010)"/>
<path id="use1" fill-rule="evenodd" clip-rule="evenodd" d="M17.5561 4.69655C17.0168 5.23377 16.3668 5.5022 15.606 5.5022C14.8452 5.5022 14.194 5.23377 13.6524 4.69655C13.1107 4.15968 12.8399 3.50976 12.8399 2.7475C12.8399 1.98991 13.1107 1.34251 13.6524 0.805651C14.194 0.268789 14.8452 0 15.606 0C16.3668 0 17.0168 0.268789 17.5561 0.805651C18.0954 1.34251 18.3649 1.98991 18.3649 2.7475C18.3649 3.50976 18.0954 4.15968 17.5561 4.69655ZM17.1938 1.5904C16.7161 1.2685 16.1857 1.10719 15.6024 1.10719C15.019 1.10719 14.486 1.26832 14.004 1.59022C13.5556 1.88818 13.223 2.27507 13.006 2.75072C13.223 3.22655 13.5556 3.61561 14.004 3.91843C14.486 4.23564 15.019 4.39425 15.6024 4.39425C16.1858 4.39425 16.7161 4.23583 17.1936 3.91843C17.6468 3.61561 17.9818 3.22673 18.199 2.7509C17.982 2.27525 17.6468 1.88854 17.1938 1.5904ZM16.6425 3.77945C16.356 4.06462 16.0105 4.20739 15.606 4.20739C15.2016 4.20739 14.8561 4.06462 14.5697 3.77945C14.2832 3.49427 14.1398 3.15005 14.1398 2.74732C14.1398 2.3444 14.2832 2.00197 14.5697 1.71878C14.8561 1.43613 15.2016 1.29444 15.606 1.29444C16.0105 1.29444 16.356 1.43595 16.6425 1.71878C16.9289 2.0018 17.0723 2.3444 17.0723 2.74732C17.0723 3.15005 16.9289 3.49427 16.6425 3.77945Z" fill="var(--fill-0, #101010)"/>
</g>
<g id="DECIDES">
<path d="M8.7593 18.1653H11.2592C12.3273 18.1653 13.2061 18.3733 13.8954 18.7894C14.5848 19.1979 15.0848 19.7312 15.3954 20.3893C15.7136 21.0399 15.8726 21.7397 15.8726 22.4886C15.8726 23.2904 15.6833 23.9977 15.3045 24.6105C14.9257 25.2232 14.4144 25.696 13.7705 26.0289C13.1341 26.3542 12.4334 26.5168 11.6683 26.5168H8.7593V18.1653ZM11.3842 24.9282C12.2402 24.9282 12.9182 24.7088 13.4182 24.2701C13.9182 23.8313 14.1682 23.1997 14.1682 22.3751C14.1682 21.7094 14.028 21.1799 13.7477 20.7865C13.475 20.3931 13.1531 20.1208 12.7819 19.9695C12.4182 19.8182 12.0736 19.7426 11.7478 19.7426H10.407V24.9282H11.3842Z" fill="url(#paint9_linear_0_1014)"/>
<path d="M23.2301 18.1653V19.7539H19.1735V21.5354H22.7642V23.124H19.1735V24.9282H23.3892V26.5168H17.5258V18.1653H23.2301Z" fill="url(#paint10_linear_0_1014)"/>
<path d="M31.5178 25.8246C31.3057 25.9986 30.9686 26.1726 30.5065 26.3466C30.0444 26.5206 29.5406 26.6076 28.9952 26.6076C28.124 26.6076 27.3665 26.4185 26.7226 26.0402C26.0787 25.662 25.5863 25.1552 25.2454 24.5197C24.9045 23.8767 24.734 23.1732 24.734 22.4091C24.734 21.5694 24.9045 20.8205 25.2454 20.1624C25.5863 19.5043 26.0635 18.9936 26.6771 18.6305C27.2907 18.2599 27.999 18.0745 28.802 18.0745C29.3096 18.0745 29.7793 18.1426 30.2111 18.2788C30.6429 18.4149 31.0216 18.5851 31.3474 18.7894L30.6997 20.344C30.1012 19.8901 29.4876 19.6631 28.8588 19.6631C28.4346 19.6631 28.0369 19.7804 27.6657 20.0149C27.2945 20.2494 26.9991 20.5709 26.7794 20.9794C26.5597 21.3803 26.4499 21.8266 26.4499 22.3184C26.4499 22.8555 26.5521 23.3283 26.7567 23.7368C26.9612 24.1377 27.2529 24.4516 27.6316 24.6786C28.0104 24.9055 28.4536 25.019 28.9611 25.019C29.3702 25.019 29.7376 24.9547 30.0633 24.8261C30.3891 24.6899 30.6467 24.5311 30.836 24.3495L31.5178 25.8246Z" fill="url(#paint11_linear_0_1014)"/>
<path d="M34.9677 18.1653V26.5168H33.32V18.1653H34.9677Z" fill="url(#paint12_linear_0_1014)"/>
<path d="M37.2777 18.1653H39.7776C40.8458 18.1653 41.7245 18.3733 42.4139 18.7894C43.1033 19.1979 43.6032 19.7312 43.9138 20.3893C44.232 21.0399 44.3911 21.7397 44.3911 22.4886C44.3911 23.2904 44.2017 23.9977 43.8229 24.6105C43.4442 25.2232 42.9328 25.696 42.2889 26.0289C41.6526 26.3542 40.9518 26.5168 40.1867 26.5168H37.2777V18.1653ZM39.9026 24.9282C40.7587 24.9282 41.4367 24.7088 41.9366 24.2701C42.4366 23.8313 42.6866 23.1997 42.6866 22.3751C42.6866 21.7094 42.5465 21.1799 42.2662 20.7865C41.9935 20.3931 41.6715 20.1208 41.3003 19.9695C40.9367 19.8182 40.592 19.7426 40.2663 19.7426H38.9254V24.9282H39.9026Z" fill="url(#paint13_linear_0_1014)"/>
<path d="M51.597 18.1653V19.7539H47.5404V21.5354H51.1312V23.124H47.5404V24.9282H51.7561V26.5168H45.8927V18.1653H51.597Z" fill="url(#paint14_linear_0_1014)"/>
<path d="M58.381 20.1851C57.6538 19.7842 57.0212 19.5837 56.4834 19.5837C56.1198 19.5837 55.8357 19.6556 55.6312 19.7993C55.4342 19.943 55.3357 20.1586 55.3357 20.4461C55.3357 20.7108 55.4796 20.9454 55.7675 21.1496C56.063 21.3463 56.4531 21.5354 56.9379 21.717C57.3318 21.8607 57.6689 22.0271 57.9492 22.2162C58.2295 22.3978 58.4606 22.6512 58.6424 22.9765C58.8318 23.3018 58.9265 23.7141 58.9265 24.2133C58.9265 24.6445 58.8128 25.0455 58.5856 25.4161C58.3659 25.7792 58.0401 26.0705 57.6083 26.2899C57.1765 26.5017 56.6614 26.6076 56.063 26.6076C55.563 26.6076 55.0668 26.5357 54.5744 26.392C54.082 26.2407 53.6237 26.0138 53.1994 25.7112L53.9267 24.4289C54.2145 24.6407 54.5441 24.8147 54.9153 24.9509C55.2865 25.0871 55.6198 25.1552 55.9152 25.1552C56.2637 25.1552 56.5667 25.0833 56.8243 24.9396C57.0819 24.7883 57.2106 24.5462 57.2106 24.2133C57.2106 23.7821 56.8053 23.4077 55.9948 23.09C55.5175 22.9008 55.1198 22.7193 54.8016 22.5453C54.4835 22.3713 54.207 22.1217 53.9721 21.7964C53.7449 21.4711 53.6312 21.0626 53.6312 20.5709C53.6312 19.8522 53.8661 19.2735 54.3357 18.8348C54.813 18.396 55.4456 18.1577 56.2334 18.1199C56.8546 18.1199 57.3735 18.1918 57.7902 18.3355C58.2068 18.4717 58.6121 18.6684 59.006 18.9256L58.381 20.1851Z" fill="url(#paint15_linear_0_1014)"/>
</g>
<path id="Star 81" d="M64.2539 19.5519L64.8704 21.4468H66.8656L65.2515 22.6178L65.868 24.5127L64.2539 23.3416L62.6398 24.5127L63.2563 22.6178L61.6422 21.4468H63.6374L64.2539 19.5519Z" fill="var(--fill-0, #0A0AE9)"/>
<path id="Star 83" d="M33.6498 34.5156L34.2663 36.4104H36.2615L34.6474 37.5815L35.2639 39.4763L33.6498 38.3053L32.0357 39.4763L32.6522 37.5815L31.0381 36.4104H33.0333L33.6498 34.5156Z" fill="var(--fill-0, #D90911)"/>
<path id="Star 82" d="M2.7461 19.5519L3.36264 21.4468H5.35779L3.74368 22.6178L4.36021 24.5127L2.7461 23.3416L1.13198 24.5127L1.74852 22.6178L0.134404 21.4468H2.12956L2.7461 19.5519Z" fill="var(--fill-0, #0A0AE9)"/>
</g>
<defs>
<linearGradient id="paint0_linear_0_1014" x1="33.5267" y1="18.2607" x2="33.5267" y2="8.0482" gradientUnits="userSpaceOnUse">
<stop stop-color="#5F83F8"/>
<stop offset="1" stop-color="#0A0AE9"/>
</linearGradient>
<linearGradient id="paint1_linear_0_1014" x1="33.5267" y1="18.2607" x2="33.5267" y2="8.0482" gradientUnits="userSpaceOnUse">
<stop stop-color="#5F83F8"/>
<stop offset="1" stop-color="#0A0AE9"/>
</linearGradient>
<linearGradient id="paint2_linear_0_1014" x1="33.5267" y1="18.2607" x2="33.5267" y2="8.0482" gradientUnits="userSpaceOnUse">
<stop stop-color="#5F83F8"/>
<stop offset="1" stop-color="#0A0AE9"/>
</linearGradient>
<linearGradient id="paint3_linear_0_1014" x1="33.5267" y1="18.2607" x2="33.5267" y2="8.0482" gradientUnits="userSpaceOnUse">
<stop stop-color="#5F83F8"/>
<stop offset="1" stop-color="#0A0AE9"/>
</linearGradient>
<linearGradient id="paint4_linear_0_1014" x1="33.5267" y1="18.2607" x2="33.5267" y2="8.0482" gradientUnits="userSpaceOnUse">
<stop stop-color="#5F83F8"/>
<stop offset="1" stop-color="#0A0AE9"/>
</linearGradient>
<linearGradient id="paint5_linear_0_1014" x1="33.5267" y1="18.2607" x2="33.5267" y2="8.0482" gradientUnits="userSpaceOnUse">
<stop stop-color="#5F83F8"/>
<stop offset="1" stop-color="#0A0AE9"/>
</linearGradient>
<linearGradient id="paint6_linear_0_1014" x1="33.5267" y1="18.2607" x2="33.5267" y2="8.0482" gradientUnits="userSpaceOnUse">
<stop stop-color="#5F83F8"/>
<stop offset="1" stop-color="#0A0AE9"/>
</linearGradient>
<linearGradient id="paint7_linear_0_1014" x1="8.77396" y1="37.2316" x2="29.2419" y2="37.2316" gradientUnits="userSpaceOnUse">
<stop stop-color="#D90911"/>
<stop offset="1" stop-color="#F85F5F"/>
</linearGradient>
<linearGradient id="paint8_linear_0_1014" x1="38.072" y1="37.2187" x2="58.5257" y2="37.2189" gradientUnits="userSpaceOnUse">
<stop stop-color="#F85F5F"/>
<stop offset="1" stop-color="#D90911"/>
</linearGradient>
<linearGradient id="paint9_linear_0_1014" x1="33.209" y1="18.1497" x2="33.209" y2="24.3909" gradientUnits="userSpaceOnUse">
<stop stop-color="#F85F5F"/>
<stop offset="1" stop-color="#D90911"/>
</linearGradient>
<linearGradient id="paint10_linear_0_1014" x1="33.209" y1="18.1497" x2="33.209" y2="24.3909" gradientUnits="userSpaceOnUse">
<stop stop-color="#F85F5F"/>
<stop offset="1" stop-color="#D90911"/>
</linearGradient>
<linearGradient id="paint11_linear_0_1014" x1="33.209" y1="18.1497" x2="33.209" y2="24.3909" gradientUnits="userSpaceOnUse">
<stop stop-color="#F85F5F"/>
<stop offset="1" stop-color="#D90911"/>
</linearGradient>
<linearGradient id="paint12_linear_0_1014" x1="33.209" y1="18.1497" x2="33.209" y2="24.3909" gradientUnits="userSpaceOnUse">
<stop stop-color="#F85F5F"/>
<stop offset="1" stop-color="#D90911"/>
</linearGradient>
<linearGradient id="paint13_linear_0_1014" x1="33.209" y1="18.1497" x2="33.209" y2="24.3909" gradientUnits="userSpaceOnUse">
<stop stop-color="#F85F5F"/>
<stop offset="1" stop-color="#D90911"/>
</linearGradient>
<linearGradient id="paint14_linear_0_1014" x1="33.209" y1="18.1497" x2="33.209" y2="24.3909" gradientUnits="userSpaceOnUse">
<stop stop-color="#F85F5F"/>
<stop offset="1" stop-color="#D90911"/>
</linearGradient>
<linearGradient id="paint15_linear_0_1014" x1="33.209" y1="18.1497" x2="33.209" y2="24.3909" gradientUnits="userSpaceOnUse">
<stop stop-color="#F85F5F"/>
<stop offset="1" stop-color="#D90911"/>
</linearGradient>
</defs>
</svg>
